<mxfile host="app.diagrams.net" modified="2023-04-03T14:59:23.772Z" agent="Mozilla/5.0 (Windows NT 6.1) AppleWebKit/537.36 (KHTML, like Gecko) Chrome/105.0.0.0 Safari/537.36" etag="R6MVcBUApdOgZ6og_CcF" version="21.1.4" type="github">
  <diagram id="R2lEEEUBdFMjLlhIrx00" name="Page-1">
    <mxGraphModel dx="874" dy="452" grid="1" gridSize="10" guides="1" tooltips="1" connect="1" arrows="1" fold="1" page="1" pageScale="1" pageWidth="850" pageHeight="1100" math="0" shadow="0" extFonts="Permanent Marker^https://fonts.googleapis.com/css?family=Permanent+Marker">
      <root>
        <mxCell id="0" />
        <mxCell id="1" parent="0" />
        <mxCell id="FEb_sd7oXNeLTOC6ZRQs-1" value="Departamento" style="rounded=1;arcSize=10;whiteSpace=wrap;html=1;align=center;labelBackgroundColor=none;" parent="1" vertex="1">
          <mxGeometry x="100" y="150" width="130" height="50" as="geometry" />
        </mxCell>
        <mxCell id="FEb_sd7oXNeLTOC6ZRQs-3" value="DID" style="ellipse;whiteSpace=wrap;html=1;align=center;fontStyle=4;labelBackgroundColor=none;" parent="1" vertex="1">
          <mxGeometry x="10" y="125" width="50" height="20" as="geometry" />
        </mxCell>
        <mxCell id="FEb_sd7oXNeLTOC6ZRQs-13" value="nome&lt;br&gt;" style="ellipse;whiteSpace=wrap;html=1;align=center;labelBackgroundColor=none;" parent="1" vertex="1">
          <mxGeometry x="7.5" y="165" width="52.5" height="20" as="geometry" />
        </mxCell>
        <mxCell id="FEb_sd7oXNeLTOC6ZRQs-14" value="Empregado&lt;br&gt;" style="rounded=1;arcSize=10;whiteSpace=wrap;html=1;align=center;labelBackgroundColor=none;" parent="1" vertex="1">
          <mxGeometry x="440" y="150" width="130" height="50" as="geometry" />
        </mxCell>
        <mxCell id="FEb_sd7oXNeLTOC6ZRQs-15" value="EID" style="ellipse;whiteSpace=wrap;html=1;align=center;fontStyle=4;labelBackgroundColor=none;" parent="1" vertex="1">
          <mxGeometry x="730" y="110" width="60" height="20" as="geometry" />
        </mxCell>
        <mxCell id="FEb_sd7oXNeLTOC6ZRQs-16" value="nome&lt;br&gt;" style="ellipse;whiteSpace=wrap;html=1;align=center;labelBackgroundColor=none;" parent="1" vertex="1">
          <mxGeometry x="717.5" y="215" width="70" height="25" as="geometry" />
        </mxCell>
        <mxCell id="FEb_sd7oXNeLTOC6ZRQs-17" value="sexo&lt;br&gt;" style="ellipse;whiteSpace=wrap;html=1;align=center;labelBackgroundColor=none;" parent="1" vertex="1">
          <mxGeometry x="725" y="140" width="62.5" height="20" as="geometry" />
        </mxCell>
        <mxCell id="FEb_sd7oXNeLTOC6ZRQs-18" value="data_nasc&lt;br&gt;" style="ellipse;whiteSpace=wrap;html=1;align=center;labelBackgroundColor=none;" parent="1" vertex="1">
          <mxGeometry x="720" y="162.5" width="80" height="25" as="geometry" />
        </mxCell>
        <mxCell id="FEb_sd7oXNeLTOC6ZRQs-19" value="salario&lt;br&gt;" style="ellipse;whiteSpace=wrap;html=1;align=center;labelBackgroundColor=none;" parent="1" vertex="1">
          <mxGeometry x="720" y="190" width="65" height="25" as="geometry" />
        </mxCell>
        <mxCell id="FEb_sd7oXNeLTOC6ZRQs-20" value="endereço&lt;br&gt;" style="ellipse;whiteSpace=wrap;html=1;align=center;labelBackgroundColor=none;" parent="1" vertex="1">
          <mxGeometry x="668.75" y="277.5" width="65" height="20" as="geometry" />
        </mxCell>
        <mxCell id="FEb_sd7oXNeLTOC6ZRQs-21" value="vincullado" style="shape=rhombus;perimeter=rhombusPerimeter;whiteSpace=wrap;html=1;align=center;labelBackgroundColor=none;" parent="1" vertex="1">
          <mxGeometry x="280" y="205" width="80" height="40" as="geometry" />
        </mxCell>
        <mxCell id="FEb_sd7oXNeLTOC6ZRQs-39" value="" style="endArrow=none;html=1;rounded=0;labelBackgroundColor=none;fontColor=default;" parent="1" edge="1">
          <mxGeometry relative="1" as="geometry">
            <mxPoint x="455" y="150" as="sourcePoint" />
            <mxPoint x="495" y="90" as="targetPoint" />
            <Array as="points">
              <mxPoint x="475" y="120" />
            </Array>
          </mxGeometry>
        </mxCell>
        <mxCell id="FEb_sd7oXNeLTOC6ZRQs-40" value="1" style="resizable=0;html=1;whiteSpace=wrap;align=right;verticalAlign=bottom;labelBackgroundColor=none;" parent="FEb_sd7oXNeLTOC6ZRQs-39" connectable="0" vertex="1">
          <mxGeometry x="1" relative="1" as="geometry">
            <mxPoint x="63" y="55" as="offset" />
          </mxGeometry>
        </mxCell>
        <mxCell id="FEb_sd7oXNeLTOC6ZRQs-41" value="supervisiona" style="text;strokeColor=none;fillColor=none;spacingLeft=4;spacingRight=4;overflow=hidden;rotatable=0;points=[[0,0.5],[1,0.5]];portConstraint=eastwest;fontSize=12;whiteSpace=wrap;html=1;labelBackgroundColor=none;" parent="1" vertex="1">
          <mxGeometry x="400" y="100" width="77.5" height="30" as="geometry" />
        </mxCell>
        <mxCell id="FEb_sd7oXNeLTOC6ZRQs-42" value="supervisionado" style="text;strokeColor=none;fillColor=none;spacingLeft=4;spacingRight=4;overflow=hidden;rotatable=0;points=[[0,0.5],[1,0.5]];portConstraint=eastwest;fontSize=12;whiteSpace=wrap;html=1;labelBackgroundColor=none;" parent="1" vertex="1">
          <mxGeometry x="510" y="100" width="90" height="30" as="geometry" />
        </mxCell>
        <mxCell id="FEb_sd7oXNeLTOC6ZRQs-46" value="data_designação" style="ellipse;whiteSpace=wrap;html=1;align=center;labelBackgroundColor=none;" parent="1" vertex="1">
          <mxGeometry x="335" y="60" width="100" height="30" as="geometry" />
        </mxCell>
        <mxCell id="FEb_sd7oXNeLTOC6ZRQs-47" value="" style="endArrow=none;html=1;rounded=0;labelBackgroundColor=none;fontColor=default;entryX=0.34;entryY=1.167;entryDx=0;entryDy=0;entryPerimeter=0;" parent="1" edge="1" target="FEb_sd7oXNeLTOC6ZRQs-46">
          <mxGeometry relative="1" as="geometry">
            <mxPoint x="340" y="125" as="sourcePoint" />
            <mxPoint x="360" y="85" as="targetPoint" />
          </mxGeometry>
        </mxCell>
        <mxCell id="FEb_sd7oXNeLTOC6ZRQs-48" value="Projeto" style="whiteSpace=wrap;html=1;align=center;labelBackgroundColor=none;" parent="1" vertex="1">
          <mxGeometry x="260" y="375" width="130" height="50" as="geometry" />
        </mxCell>
        <mxCell id="FEb_sd7oXNeLTOC6ZRQs-49" value="controla&lt;br&gt;" style="shape=rhombus;perimeter=rhombusPerimeter;whiteSpace=wrap;html=1;align=center;labelBackgroundColor=none;" parent="1" vertex="1">
          <mxGeometry x="120" y="285" width="90" height="40" as="geometry" />
        </mxCell>
        <mxCell id="FEb_sd7oXNeLTOC6ZRQs-51" value="&lt;u&gt;PID&lt;/u&gt;" style="ellipse;whiteSpace=wrap;html=1;align=center;labelBackgroundColor=none;" parent="1" vertex="1">
          <mxGeometry x="220" y="490" width="50" height="20" as="geometry" />
        </mxCell>
        <mxCell id="FEb_sd7oXNeLTOC6ZRQs-53" value="nome&lt;br&gt;" style="ellipse;whiteSpace=wrap;html=1;align=center;labelBackgroundColor=none;" parent="1" vertex="1">
          <mxGeometry x="295" y="490" width="50" height="20" as="geometry" />
        </mxCell>
        <mxCell id="FEb_sd7oXNeLTOC6ZRQs-54" value="localização" style="ellipse;whiteSpace=wrap;html=1;align=center;labelBackgroundColor=none;" parent="1" vertex="1">
          <mxGeometry x="360" y="490" width="75" height="20" as="geometry" />
        </mxCell>
        <mxCell id="FEb_sd7oXNeLTOC6ZRQs-56" value="participa" style="shape=rhombus;perimeter=rhombusPerimeter;whiteSpace=wrap;html=1;align=center;labelBackgroundColor=none;" parent="1" vertex="1">
          <mxGeometry x="452.5" y="265" width="105" height="45" as="geometry" />
        </mxCell>
        <mxCell id="FEb_sd7oXNeLTOC6ZRQs-63" value="horas_semanais" style="ellipse;whiteSpace=wrap;html=1;align=center;labelBackgroundColor=none;" parent="1" vertex="1">
          <mxGeometry x="340" y="245" width="100" height="30" as="geometry" />
        </mxCell>
        <mxCell id="FEb_sd7oXNeLTOC6ZRQs-68" value="dependencia" style="shape=rhombus;double=1;perimeter=rhombusPerimeter;whiteSpace=wrap;html=1;align=center;labelBackgroundColor=none;" parent="1" vertex="1">
          <mxGeometry x="575" y="325" width="90" height="50" as="geometry" />
        </mxCell>
        <mxCell id="FEb_sd7oXNeLTOC6ZRQs-69" value="Dependente" style="shape=ext;margin=3;double=1;whiteSpace=wrap;html=1;align=center;labelBackgroundColor=none;" parent="1" vertex="1">
          <mxGeometry x="570" y="450" width="100" height="40" as="geometry" />
        </mxCell>
        <mxCell id="FEb_sd7oXNeLTOC6ZRQs-71" value="nome" style="ellipse;whiteSpace=wrap;html=1;align=center;labelBackgroundColor=none;" parent="1" vertex="1">
          <mxGeometry x="760" y="400" width="60" height="25" as="geometry" />
        </mxCell>
        <mxCell id="FEb_sd7oXNeLTOC6ZRQs-72" value="sexo" style="ellipse;whiteSpace=wrap;html=1;align=center;labelBackgroundColor=none;" parent="1" vertex="1">
          <mxGeometry x="760" y="440" width="60" height="20" as="geometry" />
        </mxCell>
        <mxCell id="FEb_sd7oXNeLTOC6ZRQs-74" value="data_nasc" style="ellipse;whiteSpace=wrap;html=1;align=center;labelBackgroundColor=none;" parent="1" vertex="1">
          <mxGeometry x="755" y="470" width="65" height="30" as="geometry" />
        </mxCell>
        <mxCell id="FEb_sd7oXNeLTOC6ZRQs-75" value="parentesco" style="ellipse;whiteSpace=wrap;html=1;align=center;labelBackgroundColor=none;" parent="1" vertex="1">
          <mxGeometry x="750" y="510" width="70" height="25" as="geometry" />
        </mxCell>
        <mxCell id="FEb_sd7oXNeLTOC6ZRQs-77" value="" style="endArrow=none;html=1;rounded=0;labelBackgroundColor=none;fontColor=default;entryX=0.5;entryY=0;entryDx=0;entryDy=0;" parent="1" target="FEb_sd7oXNeLTOC6ZRQs-69" edge="1">
          <mxGeometry relative="1" as="geometry">
            <mxPoint x="619.5" y="375" as="sourcePoint" />
            <mxPoint x="619.5" y="445" as="targetPoint" />
          </mxGeometry>
        </mxCell>
        <mxCell id="FEb_sd7oXNeLTOC6ZRQs-78" value="N" style="resizable=0;html=1;whiteSpace=wrap;align=right;verticalAlign=bottom;labelBackgroundColor=none;" parent="FEb_sd7oXNeLTOC6ZRQs-77" connectable="0" vertex="1">
          <mxGeometry x="1" relative="1" as="geometry">
            <mxPoint x="21" y="-10" as="offset" />
          </mxGeometry>
        </mxCell>
        <mxCell id="FEb_sd7oXNeLTOC6ZRQs-79" value="" style="endArrow=none;html=1;rounded=0;exitX=1;exitY=0.5;exitDx=0;exitDy=0;labelBackgroundColor=none;fontColor=default;entryX=0.4;entryY=0.14;entryDx=0;entryDy=0;entryPerimeter=0;" parent="1" source="FEb_sd7oXNeLTOC6ZRQs-14" target="FEb_sd7oXNeLTOC6ZRQs-68" edge="1">
          <mxGeometry relative="1" as="geometry">
            <mxPoint x="580" y="170" as="sourcePoint" />
            <mxPoint x="645" y="174.5" as="targetPoint" />
          </mxGeometry>
        </mxCell>
        <mxCell id="FEb_sd7oXNeLTOC6ZRQs-80" value="1" style="resizable=0;html=1;whiteSpace=wrap;align=right;verticalAlign=bottom;labelBackgroundColor=none;" parent="FEb_sd7oXNeLTOC6ZRQs-79" connectable="0" vertex="1">
          <mxGeometry x="1" relative="1" as="geometry">
            <mxPoint x="9" y="-57" as="offset" />
          </mxGeometry>
        </mxCell>
        <mxCell id="FEb_sd7oXNeLTOC6ZRQs-82" value="supervisiona" style="shape=rhombus;perimeter=rhombusPerimeter;whiteSpace=wrap;html=1;align=center;labelBackgroundColor=none;" parent="1" vertex="1">
          <mxGeometry x="457.5" y="65" width="100" height="35" as="geometry" />
        </mxCell>
        <mxCell id="FEb_sd7oXNeLTOC6ZRQs-85" value="" style="endArrow=none;html=1;rounded=0;entryX=0.823;entryY=-0.02;entryDx=0;entryDy=0;entryPerimeter=0;labelBackgroundColor=none;fontColor=default;" parent="1" target="FEb_sd7oXNeLTOC6ZRQs-14" edge="1">
          <mxGeometry relative="1" as="geometry">
            <mxPoint x="510" y="95" as="sourcePoint" />
            <mxPoint x="570" y="145" as="targetPoint" />
          </mxGeometry>
        </mxCell>
        <mxCell id="FEb_sd7oXNeLTOC6ZRQs-87" value="N" style="text;strokeColor=none;fillColor=none;spacingLeft=4;spacingRight=4;overflow=hidden;rotatable=0;points=[[0,0.5],[1,0.5]];portConstraint=eastwest;fontSize=12;whiteSpace=wrap;html=1;labelBackgroundColor=none;" parent="1" vertex="1">
          <mxGeometry x="440" y="120" width="20" height="20" as="geometry" />
        </mxCell>
        <mxCell id="FEb_sd7oXNeLTOC6ZRQs-91" value="gerencia" style="shape=rhombus;perimeter=rhombusPerimeter;whiteSpace=wrap;html=1;align=center;labelBackgroundColor=none;" parent="1" vertex="1">
          <mxGeometry x="290" y="120" width="80" height="40" as="geometry" />
        </mxCell>
        <mxCell id="FEb_sd7oXNeLTOC6ZRQs-101" value="" style="shape=link;html=1;rounded=0;entryX=0;entryY=0;entryDx=0;entryDy=0;labelBackgroundColor=none;fontColor=default;" parent="1" target="FEb_sd7oXNeLTOC6ZRQs-21" edge="1">
          <mxGeometry relative="1" as="geometry">
            <mxPoint x="230" y="185" as="sourcePoint" />
            <mxPoint x="310" y="205" as="targetPoint" />
            <Array as="points" />
          </mxGeometry>
        </mxCell>
        <mxCell id="FEb_sd7oXNeLTOC6ZRQs-102" value="1" style="resizable=0;html=1;whiteSpace=wrap;align=right;verticalAlign=bottom;labelBackgroundColor=none;" parent="FEb_sd7oXNeLTOC6ZRQs-101" connectable="0" vertex="1">
          <mxGeometry x="1" relative="1" as="geometry">
            <mxPoint x="-40" y="10" as="offset" />
          </mxGeometry>
        </mxCell>
        <mxCell id="FEb_sd7oXNeLTOC6ZRQs-105" value="" style="shape=link;html=1;rounded=0;entryX=0;entryY=0.25;entryDx=0;entryDy=0;exitX=1;exitY=1;exitDx=0;exitDy=0;labelBackgroundColor=none;fontColor=default;" parent="1" source="FEb_sd7oXNeLTOC6ZRQs-91" target="FEb_sd7oXNeLTOC6ZRQs-14" edge="1">
          <mxGeometry relative="1" as="geometry">
            <mxPoint x="360" y="150" as="sourcePoint" />
            <mxPoint x="505" y="150" as="targetPoint" />
          </mxGeometry>
        </mxCell>
        <mxCell id="FEb_sd7oXNeLTOC6ZRQs-106" value="1" style="resizable=0;html=1;whiteSpace=wrap;align=right;verticalAlign=bottom;labelBackgroundColor=none;" parent="FEb_sd7oXNeLTOC6ZRQs-105" connectable="0" vertex="1">
          <mxGeometry x="1" relative="1" as="geometry">
            <mxPoint x="-15" y="-7" as="offset" />
          </mxGeometry>
        </mxCell>
        <mxCell id="FEb_sd7oXNeLTOC6ZRQs-107" value="" style="shape=link;html=1;rounded=0;entryX=0;entryY=0.5;entryDx=0;entryDy=0;exitX=1;exitY=0;exitDx=0;exitDy=0;labelBackgroundColor=none;fontColor=default;" parent="1" source="FEb_sd7oXNeLTOC6ZRQs-21" target="FEb_sd7oXNeLTOC6ZRQs-14" edge="1">
          <mxGeometry relative="1" as="geometry">
            <mxPoint x="340" y="210" as="sourcePoint" />
            <mxPoint x="500" y="210" as="targetPoint" />
          </mxGeometry>
        </mxCell>
        <mxCell id="FEb_sd7oXNeLTOC6ZRQs-108" value="N" style="resizable=0;html=1;whiteSpace=wrap;align=right;verticalAlign=bottom;labelBackgroundColor=none;" parent="FEb_sd7oXNeLTOC6ZRQs-107" connectable="0" vertex="1">
          <mxGeometry x="1" relative="1" as="geometry">
            <mxPoint x="-15" y="35" as="offset" />
          </mxGeometry>
        </mxCell>
        <mxCell id="FEb_sd7oXNeLTOC6ZRQs-111" value="locais" style="ellipse;shape=doubleEllipse;margin=3;whiteSpace=wrap;html=1;align=center;labelBackgroundColor=none;" parent="1" vertex="1">
          <mxGeometry y="205" width="70" height="25" as="geometry" />
        </mxCell>
        <mxCell id="FEb_sd7oXNeLTOC6ZRQs-115" value="" style="shape=link;html=1;rounded=0;entryX=0.5;entryY=0;entryDx=0;entryDy=0;exitX=0.5;exitY=1;exitDx=0;exitDy=0;" parent="1" source="FEb_sd7oXNeLTOC6ZRQs-14" target="FEb_sd7oXNeLTOC6ZRQs-56" edge="1">
          <mxGeometry relative="1" as="geometry">
            <mxPoint x="510" y="200" as="sourcePoint" />
            <mxPoint x="520" y="250" as="targetPoint" />
          </mxGeometry>
        </mxCell>
        <mxCell id="FEb_sd7oXNeLTOC6ZRQs-116" value="N" style="resizable=0;html=1;whiteSpace=wrap;align=right;verticalAlign=bottom;" parent="FEb_sd7oXNeLTOC6ZRQs-115" connectable="0" vertex="1">
          <mxGeometry x="1" relative="1" as="geometry">
            <mxPoint x="25" y="-35" as="offset" />
          </mxGeometry>
        </mxCell>
        <mxCell id="FEb_sd7oXNeLTOC6ZRQs-117" value="" style="shape=link;html=1;rounded=0;exitX=0.5;exitY=0;exitDx=0;exitDy=0;" parent="1" source="FEb_sd7oXNeLTOC6ZRQs-48" target="FEb_sd7oXNeLTOC6ZRQs-56" edge="1">
          <mxGeometry relative="1" as="geometry">
            <mxPoint x="320" y="370" as="sourcePoint" />
            <mxPoint x="480" y="370" as="targetPoint" />
          </mxGeometry>
        </mxCell>
        <mxCell id="FEb_sd7oXNeLTOC6ZRQs-118" value="N" style="resizable=0;html=1;whiteSpace=wrap;align=right;verticalAlign=bottom;" parent="FEb_sd7oXNeLTOC6ZRQs-117" connectable="0" vertex="1">
          <mxGeometry x="1" relative="1" as="geometry">
            <mxPoint x="-71" y="66" as="offset" />
          </mxGeometry>
        </mxCell>
        <mxCell id="FEb_sd7oXNeLTOC6ZRQs-119" value="" style="shape=link;html=1;rounded=0;exitX=0.667;exitY=0.875;exitDx=0;exitDy=0;exitPerimeter=0;entryX=0;entryY=0.5;entryDx=0;entryDy=0;" parent="1" source="FEb_sd7oXNeLTOC6ZRQs-49" target="FEb_sd7oXNeLTOC6ZRQs-48" edge="1">
          <mxGeometry relative="1" as="geometry">
            <mxPoint x="120" y="400" as="sourcePoint" />
            <mxPoint x="120" y="480" as="targetPoint" />
          </mxGeometry>
        </mxCell>
        <mxCell id="FEb_sd7oXNeLTOC6ZRQs-120" value="N" style="resizable=0;html=1;whiteSpace=wrap;align=right;verticalAlign=bottom;" parent="FEb_sd7oXNeLTOC6ZRQs-119" connectable="0" vertex="1">
          <mxGeometry x="1" relative="1" as="geometry">
            <mxPoint x="-20" y="10" as="offset" />
          </mxGeometry>
        </mxCell>
        <mxCell id="FEb_sd7oXNeLTOC6ZRQs-122" value="" style="shape=link;html=1;rounded=0;entryX=0.5;entryY=0;entryDx=0;entryDy=0;exitX=0.5;exitY=1;exitDx=0;exitDy=0;" parent="1" source="FEb_sd7oXNeLTOC6ZRQs-1" target="FEb_sd7oXNeLTOC6ZRQs-49" edge="1">
          <mxGeometry relative="1" as="geometry">
            <mxPoint x="150" y="200" as="sourcePoint" />
            <mxPoint x="310" y="200" as="targetPoint" />
          </mxGeometry>
        </mxCell>
        <mxCell id="FEb_sd7oXNeLTOC6ZRQs-123" value="1" style="resizable=0;html=1;whiteSpace=wrap;align=right;verticalAlign=bottom;" parent="FEb_sd7oXNeLTOC6ZRQs-122" connectable="0" vertex="1">
          <mxGeometry x="1" relative="1" as="geometry">
            <mxPoint x="-15" y="-60" as="offset" />
          </mxGeometry>
        </mxCell>
        <mxCell id="FEb_sd7oXNeLTOC6ZRQs-124" value="" style="endArrow=none;html=1;rounded=0;" parent="1" edge="1">
          <mxGeometry relative="1" as="geometry">
            <mxPoint x="60" y="175" as="sourcePoint" />
            <mxPoint x="100" y="174.5" as="targetPoint" />
          </mxGeometry>
        </mxCell>
        <mxCell id="FEb_sd7oXNeLTOC6ZRQs-134" value="" style="endArrow=none;html=1;rounded=0;" parent="1" edge="1">
          <mxGeometry relative="1" as="geometry">
            <mxPoint x="60" y="134.5" as="sourcePoint" />
            <mxPoint x="80" y="135" as="targetPoint" />
          </mxGeometry>
        </mxCell>
        <mxCell id="FEb_sd7oXNeLTOC6ZRQs-135" value="" style="endArrow=none;html=1;rounded=0;" parent="1" edge="1">
          <mxGeometry relative="1" as="geometry">
            <mxPoint x="70" y="220" as="sourcePoint" />
            <mxPoint x="80" y="220" as="targetPoint" />
          </mxGeometry>
        </mxCell>
        <mxCell id="FEb_sd7oXNeLTOC6ZRQs-136" value="" style="endArrow=none;html=1;rounded=0;" parent="1" edge="1">
          <mxGeometry relative="1" as="geometry">
            <mxPoint x="80" y="133" as="sourcePoint" />
            <mxPoint x="80" y="220" as="targetPoint" />
          </mxGeometry>
        </mxCell>
        <mxCell id="FEb_sd7oXNeLTOC6ZRQs-138" value="" style="endArrow=none;html=1;rounded=0;" parent="1" edge="1">
          <mxGeometry relative="1" as="geometry">
            <mxPoint x="320" y="425" as="sourcePoint" />
            <mxPoint x="320" y="460" as="targetPoint" />
          </mxGeometry>
        </mxCell>
        <mxCell id="FEb_sd7oXNeLTOC6ZRQs-139" value="" style="endArrow=none;html=1;rounded=0;" parent="1" edge="1">
          <mxGeometry relative="1" as="geometry">
            <mxPoint x="240" y="460" as="sourcePoint" />
            <mxPoint x="400" y="460" as="targetPoint" />
          </mxGeometry>
        </mxCell>
        <mxCell id="FEb_sd7oXNeLTOC6ZRQs-140" value="" style="endArrow=none;html=1;rounded=0;" parent="1" edge="1">
          <mxGeometry relative="1" as="geometry">
            <mxPoint x="240" y="460" as="sourcePoint" />
            <mxPoint x="240" y="490" as="targetPoint" />
          </mxGeometry>
        </mxCell>
        <mxCell id="FEb_sd7oXNeLTOC6ZRQs-141" value="" style="endArrow=none;html=1;rounded=0;" parent="1" edge="1">
          <mxGeometry relative="1" as="geometry">
            <mxPoint x="440" y="480" as="sourcePoint" />
            <mxPoint x="440" y="480" as="targetPoint" />
          </mxGeometry>
        </mxCell>
        <mxCell id="FEb_sd7oXNeLTOC6ZRQs-142" value="" style="endArrow=none;html=1;rounded=0;" parent="1" edge="1">
          <mxGeometry relative="1" as="geometry">
            <mxPoint x="399" y="460" as="sourcePoint" />
            <mxPoint x="399" y="490" as="targetPoint" />
          </mxGeometry>
        </mxCell>
        <mxCell id="FEb_sd7oXNeLTOC6ZRQs-143" value="" style="endArrow=none;html=1;rounded=0;" parent="1" edge="1">
          <mxGeometry relative="1" as="geometry">
            <mxPoint x="320" y="460" as="sourcePoint" />
            <mxPoint x="320" y="490" as="targetPoint" />
          </mxGeometry>
        </mxCell>
        <mxCell id="FEb_sd7oXNeLTOC6ZRQs-144" value="" style="endArrow=none;html=1;rounded=0;entryX=0.195;entryY=0.311;entryDx=0;entryDy=0;entryPerimeter=0;" parent="1" target="FEb_sd7oXNeLTOC6ZRQs-56" edge="1">
          <mxGeometry relative="1" as="geometry">
            <mxPoint x="440" y="265" as="sourcePoint" />
            <mxPoint x="480" y="285" as="targetPoint" />
          </mxGeometry>
        </mxCell>
        <mxCell id="FEb_sd7oXNeLTOC6ZRQs-148" value="" style="endArrow=none;html=1;rounded=0;" parent="1" edge="1">
          <mxGeometry relative="1" as="geometry">
            <mxPoint x="565" y="174.5" as="sourcePoint" />
            <mxPoint x="630" y="175" as="targetPoint" />
          </mxGeometry>
        </mxCell>
        <mxCell id="FEb_sd7oXNeLTOC6ZRQs-149" value="" style="endArrow=none;html=1;rounded=0;" parent="1" edge="1">
          <mxGeometry relative="1" as="geometry">
            <mxPoint x="630" y="120" as="sourcePoint" />
            <mxPoint x="630" y="230" as="targetPoint" />
          </mxGeometry>
        </mxCell>
        <mxCell id="FEb_sd7oXNeLTOC6ZRQs-151" value="" style="endArrow=none;html=1;rounded=0;" parent="1" edge="1">
          <mxGeometry relative="1" as="geometry">
            <mxPoint x="630" y="230" as="sourcePoint" />
            <mxPoint x="720" y="230" as="targetPoint" />
          </mxGeometry>
        </mxCell>
        <mxCell id="FEb_sd7oXNeLTOC6ZRQs-154" value="" style="endArrow=none;html=1;rounded=0;" parent="1" edge="1">
          <mxGeometry relative="1" as="geometry">
            <mxPoint x="630" y="204" as="sourcePoint" />
            <mxPoint x="720" y="204" as="targetPoint" />
          </mxGeometry>
        </mxCell>
        <mxCell id="FEb_sd7oXNeLTOC6ZRQs-155" value="" style="endArrow=none;html=1;rounded=0;" parent="1" edge="1">
          <mxGeometry relative="1" as="geometry">
            <mxPoint x="630" y="174.5" as="sourcePoint" />
            <mxPoint x="720" y="174.5" as="targetPoint" />
            <Array as="points">
              <mxPoint x="690" y="174.5" />
            </Array>
          </mxGeometry>
        </mxCell>
        <mxCell id="FEb_sd7oXNeLTOC6ZRQs-160" value="" style="endArrow=none;html=1;rounded=0;" parent="1" edge="1">
          <mxGeometry relative="1" as="geometry">
            <mxPoint x="630" y="150" as="sourcePoint" />
            <mxPoint x="720" y="150" as="targetPoint" />
          </mxGeometry>
        </mxCell>
        <mxCell id="FEb_sd7oXNeLTOC6ZRQs-161" value="" style="endArrow=none;html=1;rounded=0;entryX=0;entryY=0.5;entryDx=0;entryDy=0;" parent="1" target="FEb_sd7oXNeLTOC6ZRQs-15" edge="1">
          <mxGeometry relative="1" as="geometry">
            <mxPoint x="630" y="120" as="sourcePoint" />
            <mxPoint x="790" y="110" as="targetPoint" />
          </mxGeometry>
        </mxCell>
        <mxCell id="FEb_sd7oXNeLTOC6ZRQs-162" value="" style="endArrow=none;html=1;rounded=0;" parent="1" edge="1">
          <mxGeometry relative="1" as="geometry">
            <mxPoint x="670" y="470" as="sourcePoint" />
            <mxPoint x="720" y="470" as="targetPoint" />
          </mxGeometry>
        </mxCell>
        <mxCell id="FEb_sd7oXNeLTOC6ZRQs-163" style="edgeStyle=orthogonalEdgeStyle;rounded=0;orthogonalLoop=1;jettySize=auto;html=1;exitX=0.5;exitY=1;exitDx=0;exitDy=0;" parent="1" source="FEb_sd7oXNeLTOC6ZRQs-75" target="FEb_sd7oXNeLTOC6ZRQs-75" edge="1">
          <mxGeometry relative="1" as="geometry" />
        </mxCell>
        <mxCell id="FEb_sd7oXNeLTOC6ZRQs-164" value="" style="endArrow=none;html=1;rounded=0;" parent="1" edge="1">
          <mxGeometry relative="1" as="geometry">
            <mxPoint x="718" y="410" as="sourcePoint" />
            <mxPoint x="718" y="520" as="targetPoint" />
          </mxGeometry>
        </mxCell>
        <mxCell id="FEb_sd7oXNeLTOC6ZRQs-166" value="" style="endArrow=none;html=1;rounded=0;" parent="1" edge="1">
          <mxGeometry relative="1" as="geometry">
            <mxPoint x="720" y="520" as="sourcePoint" />
            <mxPoint x="750" y="520" as="targetPoint" />
          </mxGeometry>
        </mxCell>
        <mxCell id="FEb_sd7oXNeLTOC6ZRQs-167" value="" style="endArrow=none;html=1;rounded=0;entryX=0;entryY=0.5;entryDx=0;entryDy=0;" parent="1" target="FEb_sd7oXNeLTOC6ZRQs-74" edge="1">
          <mxGeometry relative="1" as="geometry">
            <mxPoint x="720" y="485" as="sourcePoint" />
            <mxPoint x="755" y="485" as="targetPoint" />
          </mxGeometry>
        </mxCell>
        <mxCell id="FEb_sd7oXNeLTOC6ZRQs-168" value="" style="endArrow=none;html=1;rounded=0;" parent="1" edge="1">
          <mxGeometry relative="1" as="geometry">
            <mxPoint x="720" y="450" as="sourcePoint" />
            <mxPoint x="760" y="450" as="targetPoint" />
          </mxGeometry>
        </mxCell>
        <mxCell id="FEb_sd7oXNeLTOC6ZRQs-169" value="" style="endArrow=none;html=1;rounded=0;" parent="1" edge="1">
          <mxGeometry relative="1" as="geometry">
            <mxPoint x="720" y="410" as="sourcePoint" />
            <mxPoint x="760" y="410" as="targetPoint" />
          </mxGeometry>
        </mxCell>
        <mxCell id="hkTLzmpcSNs0vGzspryy-1" value="" style="endArrow=none;dashed=1;html=1;dashPattern=1 3;strokeWidth=2;rounded=0;" parent="1" edge="1">
          <mxGeometry width="50" height="50" relative="1" as="geometry">
            <mxPoint x="770" y="420" as="sourcePoint" />
            <mxPoint x="810" y="420" as="targetPoint" />
          </mxGeometry>
        </mxCell>
        <mxCell id="m_mX5DnemKHJTg7h5gDh-1" value="Gerente" style="whiteSpace=wrap;html=1;align=center;" vertex="1" parent="1">
          <mxGeometry x="110" y="62.5" width="100" height="40" as="geometry" />
        </mxCell>
        <mxCell id="m_mX5DnemKHJTg7h5gDh-2" value="" style="endArrow=none;html=1;rounded=0;entryX=0;entryY=0.5;entryDx=0;entryDy=0;" edge="1" parent="1" target="m_mX5DnemKHJTg7h5gDh-1">
          <mxGeometry relative="1" as="geometry">
            <mxPoint x="70" y="60" as="sourcePoint" />
            <mxPoint x="190" y="40" as="targetPoint" />
          </mxGeometry>
        </mxCell>
        <mxCell id="m_mX5DnemKHJTg7h5gDh-3" value="formação" style="ellipse;whiteSpace=wrap;html=1;align=center;" vertex="1" parent="1">
          <mxGeometry x="30" y="40" width="70" height="20" as="geometry" />
        </mxCell>
        <mxCell id="m_mX5DnemKHJTg7h5gDh-6" value="" style="shape=requiredInterface;html=1;verticalLabelPosition=bottom;sketch=0;rotation=-180;direction=south;" vertex="1" parent="1">
          <mxGeometry x="150" y="125" width="20" height="10" as="geometry" />
        </mxCell>
        <mxCell id="m_mX5DnemKHJTg7h5gDh-8" value="" style="endArrow=none;html=1;rounded=0;" edge="1" parent="1" source="m_mX5DnemKHJTg7h5gDh-1">
          <mxGeometry relative="1" as="geometry">
            <mxPoint x="160" y="102.5" as="sourcePoint" />
            <mxPoint x="160" y="150" as="targetPoint" />
          </mxGeometry>
        </mxCell>
        <mxCell id="m_mX5DnemKHJTg7h5gDh-11" value="" style="endArrow=none;html=1;rounded=0;" edge="1" parent="1" target="FEb_sd7oXNeLTOC6ZRQs-91">
          <mxGeometry relative="1" as="geometry">
            <mxPoint x="210" y="80" as="sourcePoint" />
            <mxPoint x="370" y="80" as="targetPoint" />
          </mxGeometry>
        </mxCell>
        <mxCell id="m_mX5DnemKHJTg7h5gDh-12" value="1" style="resizable=0;html=1;whiteSpace=wrap;align=right;verticalAlign=bottom;" connectable="0" vertex="1" parent="m_mX5DnemKHJTg7h5gDh-11">
          <mxGeometry x="1" relative="1" as="geometry">
            <mxPoint x="-80" y="-48" as="offset" />
          </mxGeometry>
        </mxCell>
      </root>
    </mxGraphModel>
  </diagram>
</mxfile>
